PathFileType	4	(X/Y/Z)	..\data\2015007\dynamic\2015007_C4_03.trc
DataRate	CameraRate	NumFrames	NumMarkers	Units	OrigDataRate	OrigDataStartFrame	OrigNumFrames
100.000000	100.000000	4	52	mm	100.000000	20	166
Frame#	Time	L_IAS			L_IPS			R_IPS			R_IAS			L_FTC			L_FLE			L_FME			L_FAX			L_TTC			L_FAL			L_TAM			L_FCC			L_FM1			L_FM2			L_FM5			R_FTC			R_FLE			R_FME			R_FAX			R_TTC			R_FAL			R_TAM			R_FCC			R_FM1			R_FM2			R_FM5			CV7			TV10			SXS			SJN			L_SIA			L_SRS			L_SAA			L_SAE			L_HLE			L_HME			L_UOA			L_RSP			L_UHE			L_HM2			L_HM5			R_SIA			R_SRS			R_SAA			R_SAE			R_HLE			R_HME			R_UOA			R_RSP			R_UHE			R_HM2			R_HM5			
		X1	Y1	Z1	X2	Y2	Z2	X3	Y3	Z3	X4	Y4	Z4	X5	Y5	Z5	X6	Y6	Z6	X7	Y7	Z7	X8	Y8	Z8	X9	Y9	Z9	X10	Y10	Z10	X11	Y11	Z11	X12	Y12	Z12	X13	Y13	Z13	X14	Y14	Z14	X15	Y15	Z15	X16	Y16	Z16	X17	Y17	Z17	X18	Y18	Z18	X19	Y19	Z19	X20	Y20	Z20	X21	Y21	Z21	X22	Y22	Z22	X23	Y23	Z23	X24	Y24	Z24	X25	Y25	Z25	X26	Y26	Z26	X27	Y27	Z27	X28	Y28	Z28	X29	Y29	Z29	X30	Y30	Z30	X31	Y31	Z31	X32	Y32	Z32	X33	Y33	Z33	X34	Y34	Z34	X35	Y35	Z35	X36	Y36	Z36	X37	Y37	Z37	X38	Y38	Z38	X39	Y39	Z39	X40	Y40	Z40	X41	Y41	Z41	X42	Y42	Z42	X43	Y43	Z43	X44	Y44	Z44	X45	Y45	Z45	X46	Y46	Z46	X47	Y47	Z47	X48	Y48	Z48	X49	Y49	Z49	X50	Y50	Z50	X51	Y51	Z51	X52	Y52	Z52	

21	0.2	-942.137878417969	890.1453857421877	109.180564880371	-1155.031005859375	903.0113525390627	194.8771209716796	-1142.748779296875	914.9677734375002	300.7400512695312	-924.006530761719	909.1768188476565	354.2531433105468	-1031.860473632813	781.1590576171877	57.13143157958973	-1015.155944824219	418.9831542968751	95.49312591552723	-994.5676269531252	391.4241638183595	214.1645812988281	-1058.081787109375	380.7238159179688	91.28610229492176	-1016.867309570313	336.0585021972657	131.7444305419921	-1301.5703125	176.6282806396485	137.1259307861327	-1269.7412109375	151.044189453125	210.1141052246093	-1352.569702148438	170.2027587890625	201.108917236328	-1262.075317382813	33.11547088623048	179.8234863281249	-1259.807983398438	47.90999603271485	135.0164031982421	-1308.774658203125	75.60829162597658	103.7835464477538	-1000.797058105469	808.6011352539065	424.8717651367188	-888.6169433593752	446.7720336914064	358.5673828124999	-909.6484375000002	430.2145996093751	233.8272705078124	-895.2495117187502	390.0115661621095	365.3458251953124	-851.1716918945315	384.8935546875001	314.0162048339843	-914.7015380859377	62.67393112182619	336.5082702636718	-891.2142333984377	77.11543273925783	255.2037200927734	-959.1973876953127	15.55832386016846	286.8168945312499	-780.2116699218752	21.27127647399903	266.8056030273437	-784.5539550781252	32.19018936157227	312.0250549316406	-834.9274902343752	10.87481307983399	363.3224792480468	-1058.074829101563	1400.431396484375	253.6820831298827	-1151.741821289063	1162.66259765625	226.0520629882812	-877.8419189453127	1070.473510742188	233.511734008789	-942.745300292969	1320.734008789063	244.2569274902343	-1150.961181640625	1214.184204101563	142.6979980468749	-1110.619750976563	1343.50830078125	142.4486083984374	-1063.484130859375	1350.8330078125	80.54949951171864	-1013.039978027344	1358.881713867188	71.8701934814452	-1016.612854003906	1049.601196289063	-15.65602016448987	-1049.180053710938	1035.30419921875	55.5894317626952	-1043.804565429688	1020.528503417969	7.633868694305294	-885.9500122070315	845.9858398437502	19.44476890563954	-948.3863525390627	830.3242187500002	-32.51905441284192	-847.766540527344	792.1942138671877	10.40318965911855	-932.6558837890627	771.452819824219	-34.93087387084973	-1156.244140625	1198.833251953125	309.3228759765624	-1115.3974609375	1322.560424804688	324.3566894531249	-1065.652099609375	1322.175415039063	398.0323791503906	-1019.79296875	1326.440063476563	416.7293701171875	-1059.653076171875	1013.306518554688	481.4567260742188	-1096.206176757813	1004.543640136719	418.3544006347656	-1089.8828125	986.8731689453127	464.0609436035156	-998.1962280273441	790.583679199219	479.5140686035156	-1044.42822265625	797.5069580078127	519.5709838867188	-978.4023437500003	711.3355712890626	491.5042419433594	-1047.780395507813	729.8321533203126	534.9338989257812	
22	0.21	-931.5015869140627	891.4500122070315	110.4082870483398	-1144.533935546875	904.2161865234377	196.4472198486327	-1132.090454101563	916.209899902344	302.1188354492187	-913.3508300781252	910.3020629882815	355.8363037109374	-1020.129028320313	782.4168090820315	58.4154930114745	-993.513854980469	421.0120239257814	95.91080474853504	-970.6936645507815	392.8240356445314	214.3997955322265	-1035.952392578125	383.0989379882813	91.90821838378895	-993.7637939453127	338.0884704589844	131.7802276611327	-1279.102172851563	179.2172088623047	138.1996002197264	-1246.522216796875	152.7488403320313	210.6950225830077	-1329.736206054688	171.6079406738282	202.5222320556639	-1238.590209960938	35.38272857666016	178.2718811035155	-1236.691650390625	50.84956741333009	133.8165588378905	-1285.954711914063	79.10125732421876	103.4282379150389	-990.488220214844	809.7363281250002	426.1598205566406	-883.8414306640627	446.3280334472657	359.0524597167968	-904.8039550781252	430.214569091797	234.3300476074218	-891.4126586914065	389.5699157714845	365.6546020507812	-847.284851074219	384.0282592773439	314.4811706542968	-914.6109619140627	62.61968994140626	336.1324462890624	-891.1453857421877	76.97989654541017	254.8143615722656	-959.2844238281252	15.44187259674073	286.6586914062499	-780.2116699218752	21.00657272338868	266.5628967285156	-784.484313964844	32.19908905029298	312.0782775878906	-835.1091918945315	11.06718540191651	363.3965454101562	-1046.902954101563	1401.879516601563	254.4800567626952	-1140.999389648438	1164.1591796875	227.399917602539	-867.6126708984377	1071.435668945313	234.0610809326171	-931.6990966796877	1321.953735351563	244.7627563476562	-1140.389038085938	1215.647583007813	144.1127166748046	-1099.892944335938	1344.8779296875	143.4824218749999	-1052.942749023438	1352.081909179688	81.42929077148426	-1002.611145019531	1359.976928710938	72.55590057373036	-1007.92626953125	1050.574340820313	-14.27567577362073	-1040.8115234375	1036.860595703125	57.16597747802723	-1035.459838867188	1022.006408691406	9.013082504272337	-880.5574951171877	844.889343261719	20.48895263671865	-942.7590332031252	830.5505981445315	-31.80167388916028	-843.403747558594	790.2940063476565	11.5770902633666	-928.4249267578127	771.3903808593752	-34.42201995849621	-1145.186157226563	1200.495849609375	310.7975769042968	-1104.08203125	1324.17333984375	325.5019226074218	-1054.022827148438	1323.868530273438	399.0480041503906	-1008.007263183594	1328.05517578125	417.5243225097656	-1045.798461914063	1014.538757324219	482.7545166015625	-1082.979125976563	1005.453674316406	420.0490112304688	-1076.092529296875	987.8931274414065	465.7020874023438	-982.6301879882816	792.3229980468752	480.2548217773438	-1028.608642578125	798.8616333007815	520.6596069335938	-961.9430541992191	713.3510131835939	492.2292785644531	-1031.212158203125	731.2368164062501	536.1100463867188	
23	0.22	-921.0618896484377	893.0940551757815	111.3829193115234	-1134.140747070313	905.5756835937502	198.1172332763671	-1121.494750976563	917.4231567382815	303.5370788574218	-902.7993164062502	911.2918090820315	357.3168334960937	-1008.669372558594	784.0284423828127	59.56901931762685	-971.9593505859377	423.4678039550782	96.36301422119132	-947.3450317382815	394.847381591797	214.7472991943359	-1013.88134765625	385.7864074707032	92.59177398681629	-970.5604248046877	340.5278320312501	131.9519805908202	-1255.584594726563	180.7028350830078	139.2235565185546	-1222.280517578125	153.7280731201172	211.324478149414	-1305.974609375	171.5750122070313	203.7644653320311	-1212.875122070313	37.21619033813477	177.0424957275389	-1211.398803710938	53.30733108520509	132.8370666503905	-1261.126342773438	81.45626831054689	103.1833724975585	-980.440368652344	810.6629638671877	427.3017883300781	-879.605407714844	445.8286437988282	359.5458374023437	-900.145446777344	430.1203918457032	234.8077239990234	-888.0527343750002	389.1052856445314	365.9610595703124	-843.7913818359377	383.1555480957032	315.0060424804687	-914.5957641601565	62.53195571899415	335.7673645019531	-891.0999145507815	76.81438446044923	254.4458770751953	-959.416931152344	15.31649780273438	286.4704895019531	-780.252624511719	20.76491355895996	266.3853454589843	-784.4874267578127	32.17013931274415	312.1408081054687	-835.3384399414065	11.16525936126709	363.4416198730468	-1035.8447265625	1403.360717773438	255.2142639160156	-1130.345703125	1165.676513671875	228.8235778808593	-857.7025146484377	1072.43701171875	234.4026336669921	-920.7701416015627	1323.207397460938	245.1959075927734	-1129.9619140625	1217.105346679688	145.6034393310546	-1089.31884765625	1346.228149414063	144.5075225830077	-1042.602661132813	1353.286987304688	82.27929687499989	-992.4060058593752	1361.05908203125	73.16162872314442	-999.3784179687502	1051.568237304688	-12.98175716400159	-1032.5712890625	1038.41943359375	58.64255523681629	-1027.251342773438	1023.502197265625	10.2981786727904	-875.3287353515627	843.8599853515627	21.49660491943349	-937.1676025390627	830.8577880859377	-31.18665313720715	-839.2377929687502	788.494323730469	12.72532749176015	-924.2484130859377	771.4245605468752	-33.99866867065442	-1134.24609375	1202.2451171875	312.3234252929687	-1092.866088867188	1325.854248046875	326.6264038085937	-1042.464477539063	1325.658447265625	400.0278930664062	-996.2747802734377	1329.760375976563	418.2564086914062	-1031.867919921875	1015.82470703125	483.9807739257812	-1069.694946289063	1006.415161132813	421.685546875	-1062.232055664063	988.9614257812502	467.2941589355469	-966.8294677734378	794.2019653320315	480.8815612792969	-1012.55078125	800.3120117187502	521.6376342773438	-945.1635742187503	715.5470581054689	492.8477783203125	-1014.333312988282	732.7367553710939	537.1650390625	
24	0.23	-910.7985839843752	895.0752563476565	112.1436614990234	-1123.816040039063	907.0601806640627	199.8397521972655	-1110.941040039063	918.6198730468752	304.9791870117187	-892.334167480469	912.1697998046877	358.6842041015624	-997.4011840820315	785.933532714844	60.58966827392567	-950.5394287109377	426.2869567871095	96.83036041259757	-924.5781250000002	397.4208068847657	215.1776733398437	-991.912536621094	388.698211669922	93.30407714843739	-947.3480224609377	343.3332519531251	132.2209014892577	-1231.103881835938	181.0410461425782	140.1661376953124	-1197.096069335938	153.946762084961	211.9693450927734	-1281.337524414063	170.1325836181641	204.8218231201171	-1185.1474609375	38.51827239990235	176.1824188232421	-1184.140625	55.1550636291504	132.1360321044921	-1234.477416992188	82.58086395263673	103.0725555419921	-970.6483154296877	811.3987426757815	428.2894287109375	-875.831726074219	445.3027343750001	360.0526123046874	-895.655456542969	429.9519958496095	235.2697296142578	-885.0823974609377	388.6413879394532	366.2792968749999	-840.632019042969	382.2954711914063	315.5786437988281	-914.609313964844	62.42868423461915	335.4236145019531	-891.048278808594	76.63442993164064	254.1046752929687	-959.5668945312502	15.21109962463379	286.2648315429687	-780.3082275390627	20.53611564636231	266.2650146484374	-784.5256958007815	32.09728622436524	312.2046813964843	-835.5863037109377	11.17752742767334	363.4661865234374	-1024.896240234375	1404.8564453125	255.8925323486328	-1119.7548828125	1167.198608398438	230.3274688720702	-848.0588378906252	1073.502685546875	234.5623931884765	-909.949890136719	1324.489990234375	245.5724639892578	-1119.652221679688	1218.538452148438	147.1668853759764	-1078.881958007813	1347.5400390625	145.5289611816405	-1032.445922851563	1354.43701171875	83.10889434814442	-982.4002685546877	1362.128662109375	73.70188140869131	-990.9837646484377	1052.58154296875	-11.77066040039075	-1024.447875976563	1039.973266601563	60.01909255981434	-1019.190185546875	1025.007934570313	11.49651145935046	-870.2375488281252	842.917907714844	22.45501136779775	-931.6215820312502	831.2398071289065	-30.6568241119386	-835.2283325195315	786.8239746093752	13.82603263854971	-920.109802246094	771.5512695312502	-33.63810348510754	-1123.400024414063	1204.052734375	313.8929748535156	-1081.743286132813	1327.577270507813	327.7290039062499	-1030.980834960938	1327.523071289063	400.9711608886719	-984.6045532226565	1331.542846679688	418.9297180175781	-1017.879272460938	1017.159362792969	485.135986328125	-1056.358520507813	1007.427490234375	423.2536926269531	-1048.3154296875	990.0698242187502	468.8267822265625	-950.8171997070316	796.2186279296877	481.3843383789062	-996.2788696289066	801.8545532226565	522.4927978515625	-928.0982666015628	717.9149169921876	493.3334350585938	-997.1740112304691	734.3251953125001	538.076171875	
